<svg xmlns="http://www.w3.org/2000/svg" width="100.714" height="30" viewBox="0 0 100.714 30" fill="none"><path d="M1.143 23.407V12.155h13.895v-0.658H1.143V1.229h14.774V0.572H0.491v23.494h15.555v-0.658H1.143ZM28.574 7.152l-5.76 7.667 -5.63 -7.666h-0.847l6.086 8.16 -6.671 8.753h0.782l6.28 -8.259 6.314 8.259h0.813l-6.704 -8.753 6.118 -8.16h-0.782Zm3.32 22.705V19.328h0.065c0.391 1.536 1.161 2.769 2.311 3.701 1.15 0.932 2.614 1.399 4.393 1.399 1.15 0 2.169 -0.236 3.059 -0.707a6.527 6.527 0 0 0 2.229 -1.926c0.597 -0.812 1.053 -1.755 1.367 -2.829s0.471 -2.205 0.471 -3.389c0 -1.272 -0.163 -2.445 -0.488 -3.521 -0.326 -1.074 -0.797 -2.007 -1.416 -2.797a6.525 6.525 0 0 0 -2.245 -1.843c-0.879 -0.439 -1.871 -0.658 -2.978 -0.658a7.131 7.131 0 0 0 -2.359 0.379 6.294 6.294 0 0 0 -1.935 1.07 7.215 7.215 0 0 0 -1.464 1.629 7.538 7.538 0 0 0 -0.945 2.057h-0.065V7.153h-0.651v22.704h0.651Zm6.769 -6.054c-2.039 0 -3.677 -0.707 -4.914 -2.123 -1.236 -1.414 -1.854 -3.45 -1.854 -6.104a10.571 10.571 0 0 1 0.456 -3.126c0.303 -0.987 0.743 -1.854 1.318 -2.599a6.345 6.345 0 0 1 2.132 -1.777c0.846 -0.439 1.8 -0.657 2.865 -0.657 1.084 0 2.033 0.219 2.847 0.657a5.793 5.793 0 0 1 2.018 1.794c0.531 0.757 0.933 1.623 1.204 2.6a11.571 11.571 0 0 1 0.407 3.109 11.829 11.829 0 0 1 -0.375 2.945 8.447 8.447 0 0 1 -1.155 2.632 6.315 6.315 0 0 1 -2.001 1.909c-0.813 0.494 -1.795 0.741 -2.945 0.741Zm10.707 0.263V14.491c0 -0.921 0.13 -1.821 0.39 -2.698a6.639 6.639 0 0 1 1.204 -2.32c0.543 -0.669 1.232 -1.195 2.067 -1.58 0.836 -0.384 1.828 -0.543 2.978 -0.477v-0.658c-0.999 -0.022 -1.871 0.088 -2.62 0.328 -0.748 0.242 -1.394 0.571 -1.935 0.987a5.029 5.029 0 0 0 -1.302 1.464 6.59 6.59 0 0 0 -0.716 1.794h-0.065V7.152h-0.651v16.913h0.65Zm7.451 -8.325h13.993a11.847 11.847 0 0 0 -0.341 -3.357c-0.272 -1.075 -0.705 -2.029 -1.301 -2.863a6.648 6.648 0 0 0 -2.311 -2.007c-0.944 -0.504 -2.067 -0.757 -3.368 -0.757a6.674 6.674 0 0 0 -2.733 0.593 6.801 6.801 0 0 0 -2.343 1.728c-0.673 0.756 -1.215 1.683 -1.627 2.78 -0.412 1.097 -0.619 2.347 -0.619 3.752 0 1.25 0.141 2.419 0.423 3.504 0.282 1.086 0.716 2.029 1.301 2.83a5.886 5.886 0 0 0 2.261 1.859c0.922 0.439 2.034 0.647 3.336 0.625 1.91 0 3.514 -0.543 4.816 -1.629 1.301 -1.086 2.072 -2.616 2.31 -4.591h-0.651c-0.282 1.864 -1.004 3.264 -2.164 4.196 -1.16 0.932 -2.619 1.399 -4.377 1.399 -1.193 0 -2.202 -0.208 -3.027 -0.626a5.498 5.498 0 0 1 -2.018 -1.711c-0.521 -0.724 -0.906 -1.575 -1.155 -2.55 -0.25 -0.976 -0.386 -2.035 -0.407 -3.176Zm13.343 -0.658H56.821c0.066 -1.185 0.282 -2.248 0.651 -3.192 0.369 -0.943 0.851 -1.749 1.448 -2.419a6.055 6.055 0 0 1 2.083 -1.53 6.232 6.232 0 0 1 2.554 -0.526c1.085 0 2.039 0.203 2.865 0.609a5.924 5.924 0 0 1 2.066 1.662c0.554 0.701 0.971 1.519 1.253 2.451a10.114 10.114 0 0 1 0.423 2.945Zm14.155 -2.929h0.651c0 -1.887 -0.543 -3.257 -1.627 -4.113 -1.084 -0.855 -2.56 -1.283 -4.425 -1.283 -1.041 0 -1.919 0.131 -2.636 0.395 -0.716 0.263 -1.301 0.603 -1.757 1.02 -0.456 0.417 -0.781 0.877 -0.976 1.382 -0.195 0.505 -0.293 0.988 -0.293 1.448 0 0.921 0.163 1.657 0.489 2.205 0.325 0.549 0.835 0.976 1.529 1.284a11.657 11.657 0 0 0 1.627 0.592 57.463 57.463 0 0 0 2.115 0.56c0.716 0.176 1.421 0.351 2.115 0.526 0.694 0.176 1.307 0.411 1.839 0.707a3.983 3.983 0 0 1 1.302 1.136c0.337 0.461 0.504 1.065 0.504 1.81 0 0.723 -0.168 1.338 -0.504 1.843a4.088 4.088 0 0 1 -1.286 1.233 5.681 5.681 0 0 1 -1.741 0.691 8.559 8.559 0 0 1 -1.871 0.214c-1.974 0 -3.487 -0.444 -4.539 -1.333 -1.053 -0.889 -1.579 -2.287 -1.579 -4.196h-0.651c0 2.128 0.569 3.686 1.708 4.673 1.139 0.987 2.826 1.481 5.06 1.481a9.75 9.75 0 0 0 2.164 -0.247 5.975 5.975 0 0 0 1.953 -0.806 4.437 4.437 0 0 0 1.4 -1.448c0.358 -0.593 0.537 -1.317 0.537 -2.171 0 -0.813 -0.157 -1.47 -0.472 -1.975a3.975 3.975 0 0 0 -1.237 -1.25 6.514 6.514 0 0 0 -1.725 -0.773c-0.64 -0.186 -1.286 -0.367 -1.936 -0.543a278.333 278.333 0 0 0 -2.392 -0.625 14.425 14.425 0 0 1 -1.904 -0.626c-0.564 -0.241 -1.014 -0.586 -1.35 -1.035 -0.337 -0.45 -0.504 -1.092 -0.504 -1.926 0 -0.153 0.043 -0.427 0.13 -0.822 0.087 -0.395 0.293 -0.795 0.618 -1.202 0.326 -0.405 0.825 -0.768 1.497 -1.086 0.673 -0.318 1.594 -0.477 2.766 -0.477 0.803 0 1.535 0.088 2.197 0.263 0.662 0.175 1.231 0.455 1.708 0.838a3.805 3.805 0 0 1 1.107 1.464c0.261 0.593 0.391 1.317 0.391 2.171Zm15.067 0h0.651c0 -1.887 -0.543 -3.257 -1.627 -4.113 -1.085 -0.855 -2.56 -1.283 -4.425 -1.283 -1.041 0 -1.92 0.131 -2.636 0.395 -0.717 0.263 -1.302 0.603 -1.757 1.02 -0.456 0.417 -0.782 0.877 -0.976 1.382 -0.195 0.505 -0.293 0.988 -0.293 1.448 0 0.921 0.163 1.657 0.488 2.205 0.326 0.549 0.835 0.976 1.529 1.284 0.478 0.219 1.02 0.417 1.627 0.592 0.608 0.175 1.313 0.362 2.115 0.56 0.716 0.176 1.421 0.351 2.115 0.526 0.694 0.176 1.307 0.411 1.839 0.707a3.988 3.988 0 0 1 1.301 1.136c0.337 0.461 0.504 1.065 0.504 1.81 0 0.723 -0.168 1.338 -0.504 1.843a4.086 4.086 0 0 1 -1.285 1.233 5.685 5.685 0 0 1 -1.742 0.691 8.559 8.559 0 0 1 -1.871 0.214c-1.974 0 -3.488 -0.444 -4.54 -1.333 -1.053 -0.889 -1.578 -2.287 -1.578 -4.196h-0.651c0 2.128 0.569 3.686 1.708 4.673 1.139 0.987 2.826 1.481 5.061 1.481 0.716 0 1.437 -0.082 2.163 -0.247a5.979 5.979 0 0 0 1.953 -0.806 4.437 4.437 0 0 0 1.4 -1.448c0.358 -0.593 0.537 -1.317 0.537 -2.171 0 -0.813 -0.157 -1.47 -0.471 -1.975a3.99 3.99 0 0 0 -1.237 -1.25 6.53 6.53 0 0 0 -1.725 -0.773 104.4 104.4 0 0 0 -1.936 -0.543 287.507 287.507 0 0 0 -2.391 -0.625 14.39 14.39 0 0 1 -1.904 -0.626c-0.564 -0.241 -1.014 -0.586 -1.351 -1.035 -0.337 -0.45 -0.504 -1.092 -0.504 -1.926 0 -0.153 0.044 -0.427 0.13 -0.822 0.087 -0.395 0.293 -0.795 0.619 -1.202 0.325 -0.405 0.825 -0.768 1.497 -1.086 0.673 -0.318 1.595 -0.477 2.767 -0.477 0.803 0 1.535 0.088 2.197 0.263 0.662 0.175 1.232 0.455 1.708 0.838a3.819 3.819 0 0 1 1.107 1.464c0.26 0.593 0.39 1.317 0.39 2.171Z" fill="#fff"/></svg>