<svg width="33" height="40" viewBox="0 0 33 40" fill="none" xmlns="http://www.w3.org/2000/svg"><g clip-path="url(#a)" fill="#FFFEFA"><path d="M16.691 38.432c-.507 0-1.01-.13-1.455-.382l-4.633-2.695c-.692-.38-.354-.515-.126-.592.922-.318 1.11-.39 2.094-.939.104-.058.24-.037.345.024l3.56 2.075c.128.068.31.068.43 0l13.878-7.87a.429.429 0 0 0 .211-.369V11.951a.436.436 0 0 0-.214-.375L16.908 3.713a.433.433 0 0 0-.427 0l-13.87 7.863a.433.433 0 0 0-.22.372v15.733c0 .15.084.294.216.365l3.8 2.157c2.064 1.014 3.325-.18 3.325-1.382V13.293c0-.222.177-.393.403-.393h1.758c.218 0 .4.17.4.393v15.535c0 2.703-1.502 4.256-4.11 4.256-.803 0-1.435 0-3.2-.854l-3.64-2.061a2.874 2.874 0 0 1-1.456-2.488V11.948c0-1.024.556-1.98 1.456-2.485L15.234 1.59c.88-.488 2.046-.488 2.918 0l13.875 7.877a2.867 2.867 0 0 1 1.455 2.484v15.733a2.876 2.876 0 0 1-1.455 2.485l-13.875 7.873a2.956 2.956 0 0 1-1.462.383"/><path d="M20.98 27.59c-6.073 0-7.346-2.738-7.346-5.035 0-.218.179-.392.402-.392h1.792a.4.4 0 0 1 .396.334c.271 1.794 1.077 2.7 4.749 2.7 2.925 0 4.168-.65 4.168-2.174 0-.877-.354-1.529-4.898-1.966-3.8-.368-6.148-1.19-6.148-4.177 0-2.75 2.362-4.389 6.319-4.389 4.443 0 6.645 1.516 6.923 4.771a.393.393 0 0 1-.108.304.416.416 0 0 1-.295.126H25.13a.397.397 0 0 1-.39-.307c-.433-1.887-1.482-2.491-4.334-2.491-3.193 0-3.564 1.092-3.564 1.911 0 .993.437 1.283 4.745 1.843 4.266.556 6.29 1.341 6.29 4.286 0 2.97-2.521 4.673-6.919 4.673l.02-.017Z"/></g><defs><clipPath id="a"><path fill="#fff" d="M0 0h33v40H0z"/></clipPath></defs></svg>