<svg width="167" height="26" viewBox="0 0 167 26" fill="none" xmlns="http://www.w3.org/2000/svg"><path d="M42.117 12.89h-6.454V6.4h6.805c2.49 0 3.736 1.098 3.736 3.296 0 2.13-1.363 3.196-4.087 3.196m4.64-6.568c-.89-.792-2.123-1.188-3.713-1.188l-9.244.05v15.531h1.863l-.017-6.611h6.879c1.724 0 3.082-.396 4.073-1.189.99-.792 1.486-1.89 1.486-3.296s-.442-2.505-1.326-3.297h-.002Zm12.055 11.132a3.182 3.182 0 0 1-.884 1.321c-.835.814-2.107 1.22-3.82 1.22-1.546 0-2.732-.388-3.56-1.186-.827-.798-1.242-1.85-1.242-3.178 0-.69.109-1.304.325-1.84.216-.535.53-.986.943-1.354.856-.78 2.034-1.171 3.535-1.171 3.324 0 4.987 1.455 4.987 4.365 0 .692-.095 1.299-.278 1.823m.337-5.73c-1.135-1.034-2.814-1.557-5.04-1.557-2.103 0-3.728.528-4.874 1.585-1.035.957-1.558 2.248-1.558 3.873 0 1.613.534 2.915 1.602 3.905.59.534 1.277.921 2.062 1.16.785.24 1.705.359 2.762.359 2.214 0 3.894-.512 5.057-1.535 1.035-.935 1.558-2.225 1.558-3.89 0-1.668-.523-2.97-1.569-3.906v.006Zm14.083 6.179c0 2.09-1.873 3.135-5.618 3.135-1.145 0-2.109-.072-2.892-.218-.783-.145-1.42-.386-1.91-.722a2.792 2.792 0 0 1-.9-1.001c-.222-.412-.367-.929-.434-1.558l1.743-.016c0 .823.305 1.428.915 1.818.655.467 1.813.7 3.478.7 2.618 0 3.927-.656 3.927-1.967 0-.768-.445-1.295-1.317-1.586-.178-.055-1.236-.203-3.17-.441-1.934-.24-3.149-.454-3.626-.643-1.034-.412-1.55-1.151-1.55-2.218 0-1.046.461-1.825 1.39-2.335.456-.212 1.027-.375 1.711-.493.685-.117 1.478-.175 2.379-.175 3.605 0 5.408 1.131 5.408 3.393h-1.657c0-1.59-1.269-2.392-3.802-2.392-1.29 0-2.252.167-2.885.484-.634.317-.95.818-.95 1.486 0 .622.428 1.073 1.284 1.351.5.145 1.65.312 3.452.5 1.612.145 2.718.351 3.318.613 1.146.445 1.718 1.201 1.718 2.268l-.012.017Zm6.846 2.833-.71.1-.442.033c-1.135 0-1.947-.164-2.454-.493-.508-.33-.753-.905-.753-1.724v-7.095h-2.062v-1.043h2.051l.017-3.349h1.589v3.35h2.766v1.058l-2.766-.016v6.895c0 .514.136.868.409 1.057.272.19.758.293 1.46.293.1.01.21.008.333-.011a5.69 5.69 0 0 0 .55-.126l.017 1.057-.005.014Zm10.988-2.353a4.725 4.725 0 0 1-1.483.817c-.556.19-1.195.279-1.917.279-3.323 0-4.984-1.373-4.984-4.117 0-1.277.425-2.278 1.275-3 .851-.723 2.047-1.084 3.593-1.084 1.556 0 2.737.365 3.542 1.092.805.728 1.209 1.704 1.209 2.926 0 1.333-.412 2.362-1.234 3.083m2.823-7.862h-1.589l-.017 1.752c-.7-.712-1.201-1.16-1.501-1.35-.89-.49-2.04-.733-3.453-.733-2.068 0-3.648.473-4.737 1.417-1.035.868-1.55 2.123-1.55 3.768 0 .812.13 1.537.391 2.17a4.38 4.38 0 0 0 1.145 1.625c1.09.911 2.633 1.367 4.628 1.367 2.394 0 4.092-.654 5.095-1.964v1.813c0 1.157-.365 2.051-1.093 2.686-.728.634-1.926.945-3.594.945-1.569 0-2.686-.222-3.353-.647-.5-.332-.845-.908-1.034-1.727h-1.636c.178 1.144.668 1.972 1.447 2.482.912.589 2.447.883 4.616.883 4.15 0 6.23-1.543 6.23-4.628v-9.855l.005-.004Zm8.594 1.03a8.276 8.276 0 0 0-1.333-.11c-2.611 0-3.917 1.432-3.917 4.295v4.98h-1.572l-.017-10.19 1.59.015v1.819h.083c.267-.717.69-1.26 1.267-1.63.633-.358 1.578-.537 2.834-.537h1.066v1.368l-.001-.01Zm1.478 3.426c.2-1.158.651-2.055 1.35-2.69a4.737 4.737 0 0 1 1.551-.827c.577-.184 1.223-.276 1.951-.276 1.412 0 2.559.387 3.46 1.161.901.775 1.342 1.652 1.342 2.631l-9.654.001Zm9.808-3.144c-.556-.558-1.246-.97-2.069-1.239-.823-.268-1.78-.401-2.893-.401-2.058 0-3.654.478-4.79 1.435-1.136.957-1.702 2.258-1.702 3.906 0 1.647.545 2.948 1.635 3.921 1.18 1.068 2.837 1.602 4.989 1.602.856 0 1.648-.097 2.377-.29a6.57 6.57 0 0 0 1.91-.824c.957-.687 1.562-1.535 1.819-2.542h-1.718c-.59 1.743-2.056 2.614-4.402 2.614-1.657 0-2.93-.426-3.819-1.278-.767-.73-1.15-1.676-1.15-2.839h11.327c0-1.729-.501-3.084-1.519-4.06l.005-.005Zm18.305 4.721c0 3.026-2.44 4.54-7.321 4.54-2.925 0-5.059-.522-6.404-1.558-1.102-.857-1.651-2.163-1.651-3.92h1.964c0 2.824 2.031 4.236 6.09 4.236 1.947 0 3.354-.289 4.228-.866.734-.51 1.101-1.311 1.101-2.4 0-1.078-.501-1.833-1.502-2.267-.567-.234-1.947-.528-4.155-.883-2.77-.423-4.566-.845-5.389-1.267-1.19-.623-1.78-1.678-1.78-3.167 0-1.39.501-2.423 1.519-3.1 1.09-.745 2.959-1.118 5.605-1.118 4.784 0 7.176 1.589 7.176 4.766h-1.982c0-2.38-1.776-3.57-5.328-3.57-1.781 0-3.084.24-3.908.723-.78.512-1.168 1.263-1.168 2.253 0 1.035.501 1.763 1.502 2.186.534.245 2.103.584 4.706 1.018 2.447.367 4.099.796 4.95 1.28 1.169.6 1.753 1.64 1.753 3.114h-.006Zm15.964 1.545a7.673 7.673 0 0 1-2.488 1.323c-.924.295-1.959.442-3.106.442-2.338 0-4.227-.63-5.67-1.89-1.443-1.26-2.162-2.94-2.162-5.039 0-2.187.714-3.891 2.145-5.113 1.431-1.221 3.326-1.831 5.687-1.831 2.393 0 4.275.638 5.644 1.915a5.781 5.781 0 0 1 1.604 2.182c.346.833.517 1.782.517 2.848 0 2.176-.724 3.897-2.172 5.162m1.045 1.03c1.023-.722 1.781-1.596 2.271-2.624s.735-2.214.735-3.559c0-2.411-.801-4.339-2.403-5.8-.856-.8-1.891-1.395-3.103-1.784-1.213-.389-2.598-.584-4.156-.584-3.026 0-5.395.734-7.12 2.2-1.724 1.466-2.586 3.455-2.586 5.967 0 2.444.87 4.416 2.61 5.916 1.741 1.5 4.118 2.25 7.131 2.25 1.18 0 2.208-.08 3.086-.239.878-.16 1.624-.404 2.236-.734l2.903 2.012 1.212-1.114-2.811-1.906h-.005Zm17.716 1.59h-13.431V5.162l1.846-.034v14.283h11.597l-.017 1.299.005.005Z" fill="#fff"/><path d="M13.988 15.997c-.091 2.766.022 5.552.342 6.23.32.677 1.003 1.994 3.355 1.567 1.965-.357 2.68-1.048 2.99-2.573.222-1.122.669-4.24.725-4.877M11.169 2.127S.516-1.56 1.017 6.831c.111 1.785 3.017 13.503 6.492 9.957a52.859 52.859 0 0 1 2.416-2.31m7-13.024c-.368.098 5.923-1.949 9.498 1.923 1.263 1.369-.2 6.958-3.701 11.361" stroke="#fff" stroke-width=".762" stroke-linecap="round" stroke-linejoin="round"/><path d="M22.716 14.738s.223.95 3.543.371c1.453-.254.579.714-.895 1.294-1.21.476-3.92.597-3.964-.06-.114-1.696 1.426-1.18 1.315-1.605-.1-.383-.79-.759-1.246-1.695-.398-.818-5.457-7.088 1.403-6.157.251-.045-1.79-5.531-8.21-5.62-6.421-.09-6.208 6.691-6.208 6.691" stroke="#fff" stroke-width=".762" stroke-linecap="round" stroke-linejoin="bevel"/><path d="M12.191 15.318c-.895.847-.631.995-2.42 1.308-1.81.317-.747.879-.053 1.026.842.178 2.789.431 4.104-1.13.4-.476-.002-1.235-.552-1.427-.266-.094-.621-.21-1.079.222Z" stroke="#fff" stroke-width=".762" stroke-linejoin="round"/><path d="M12.133 15.303c-.09-.498.193-1.09.497-1.784.456-1.04 1.508-2.082.667-5.383-.627-2.46-4.838-.512-4.84-.178-.001.334.191 1.69-.07 3.27-.34 2.063 1.548 3.807 3.723 3.63" stroke="#fff" stroke-width=".762" stroke-linecap="round" stroke-linejoin="round"/><path d="M11.13 7.907c-.018.114.247.417.593.458.345.041.64-.197.659-.31.02-.114-.246-.24-.592-.28-.346-.042-.64.018-.66.132Z" fill="#fff" stroke="#fff" stroke-width=".254"/><path d="M21.639 7.675c.019.114-.246.417-.592.458-.346.041-.64-.197-.66-.311-.019-.115.247-.24.592-.28.346-.042.64.018.66.132Z" fill="#fff" stroke="#fff" stroke-width=".127"/><path d="M22.874 6.886c.056.894-.227 1.502-.263 2.454-.053 1.383.777 2.965-.474 4.55" stroke="#fff" stroke-width=".762" stroke-linecap="round" stroke-linejoin="round"/><path d="M13.988 15.997c-.091 2.766.022 5.552.342 6.23.32.677 1.003 1.994 3.355 1.567 1.965-.357 2.68-1.048 2.99-2.573.222-1.122.669-4.24.725-4.877M11.169 2.127S.516-1.56 1.017 6.831c.111 1.785 3.017 13.503 6.492 9.957a52.859 52.859 0 0 1 2.416-2.31m7-13.024c-.368.098 5.923-1.949 9.498 1.923 1.263 1.369-.2 6.958-3.701 11.361" stroke="#fff" stroke-width=".762" stroke-linecap="round" stroke-linejoin="round"/><path d="M22.716 14.738s.223.95 3.543.371c1.453-.254.579.714-.895 1.294-1.21.476-3.92.597-3.964-.06-.114-1.696 1.426-1.18 1.315-1.605-.1-.383-.79-.759-1.246-1.695-.398-.818-5.457-7.088 1.403-6.157.251-.045-1.79-5.531-8.21-5.62-6.421-.09-6.208 6.691-6.208 6.691" stroke="#fff" stroke-width=".762" stroke-linecap="round" stroke-linejoin="bevel"/><path d="M12.191 15.318c-.895.847-.631.995-2.42 1.308-1.81.317-.747.879-.053 1.026.842.178 2.789.431 4.104-1.13.4-.476-.002-1.235-.552-1.427-.266-.094-.621-.21-1.079.222Z" stroke="#fff" stroke-width=".762" stroke-linejoin="round"/><path d="M12.133 15.303c-.09-.498.193-1.09.497-1.784.456-1.04 1.508-2.082.667-5.383-.627-2.46-4.838-.512-4.84-.178-.001.334.191 1.69-.07 3.27-.34 2.063 1.548 3.807 3.723 3.63" stroke="#fff" stroke-width=".762" stroke-linecap="round" stroke-linejoin="round"/></svg>