<svg width="70" height="50" viewBox="0 0 61 61" fill="none" xmlns="http://www.w3.org/2000/svg"><path d="M45.74 23.698a30.1 30.1 0 0 0-1.446-.455c.081-.334.156-.663.223-.987 1.095-5.314.38-9.595-2.065-11.005-2.344-1.352-6.177.058-10.048 3.427a30.16 30.16 0 0 0-1.12 1.026 27.446 27.446 0 0 0-.744-.688c-4.057-3.602-8.124-5.12-10.566-3.706-2.341 1.355-3.035 5.38-2.05 10.417.096.486.207.983.333 1.488-.575.163-1.131.337-1.663.523C11.838 25.396 8.8 27.995 8.8 30.69c0 2.784 3.26 5.577 8.215 7.27.391.134.797.26 1.215.38a29.312 29.312 0 0 0-.353 1.604c-.94 4.95-.206 8.88 2.13 10.226 2.412 1.391 6.46-.039 10.402-3.484.312-.273.625-.562.938-.864.406.39.811.76 1.215 1.108 3.818 3.285 7.589 4.612 9.922 3.262 2.41-1.395 3.193-5.617 2.176-10.753a25.368 25.368 0 0 0-.27-1.201c.285-.084.564-.17.837-.261 5.15-1.706 8.501-4.465 8.501-7.287 0-2.706-3.136-5.322-7.988-6.993Zm-1.117 12.458c-.246.081-.498.16-.755.236-.568-1.8-1.336-3.714-2.275-5.692.896-1.93 1.634-3.82 2.187-5.608.46.133.905.273 1.335.421 4.158 1.431 6.694 3.547 6.694 5.178 0 1.737-2.739 3.992-7.186 5.465Zm-1.845 3.657c.45 2.27.513 4.324.216 5.93-.268 1.442-.806 2.403-1.471 2.788-1.416.82-4.444-.245-7.71-3.055a27.5 27.5 0 0 1-1.13-1.03c1.267-1.385 2.532-2.995 3.767-4.782 2.171-.193 4.223-.508 6.084-.938.092.37.173.732.244 1.087ZM24.117 48.39c-1.383.488-2.485.502-3.151.118-1.417-.817-2.007-3.972-1.203-8.205.092-.484.202-.982.328-1.491 1.84.407 3.877.7 6.055.876a46.71 46.71 0 0 0 3.856 4.765c-.286.277-.572.54-.856.788-1.743 1.524-3.49 2.605-5.03 3.149Zm-6.48-12.245c-2.192-.748-4-1.722-5.241-2.783-1.114-.955-1.677-1.902-1.677-2.67 0-1.637 2.44-3.724 6.507-5.142.494-.172 1.01-.334 1.547-.486.562 1.828 1.3 3.74 2.19 5.674a46.763 46.763 0 0 0-2.218 5.755c-.382-.11-.753-.226-1.109-.348Zm2.171-14.787c-.844-4.315-.283-7.57 1.128-8.387 1.503-.87 4.827.37 8.33 3.48.224.2.449.408.674.623a45.965 45.965 0 0 0-3.827 4.736 46.83 46.83 0 0 0-5.996.932 28.64 28.64 0 0 1-.309-1.384Zm19.38 4.785a61.08 61.08 0 0 0-1.366-2.247 42.35 42.35 0 0 1 4.097.717 41.027 41.027 0 0 1-1.438 3.868 67.126 67.126 0 0 0-1.292-2.338Zm-7.903-7.697a41.03 41.03 0 0 1 2.644 3.191 56.523 56.523 0 0 0-5.31 0 42.367 42.367 0 0 1 2.666-3.191Zm-7.953 7.71c-.444.77-.867 1.547-1.269 2.324a42.39 42.39 0 0 1-1.427-3.888 43.26 43.26 0 0 1 4.073-.699 56.4 56.4 0 0 0-1.377 2.263Zm1.418 11.47a40.836 40.836 0 0 1-4.14-.666 43.1 43.1 0 0 1 1.456-3.966 56.791 56.791 0 0 0 2.684 4.632Zm6.588 5.446a43.097 43.097 0 0 1-2.703-3.235c.86.034 1.738.05 2.629.05.916 0 1.821-.02 2.712-.06a40.845 40.845 0 0 1-2.637 3.245ZM40.5 32.925a40.749 40.749 0 0 1 1.51 3.952c-1.304.297-2.71.537-4.192.715.466-.74.927-1.502 1.38-2.286.457-.794.892-1.589 1.302-2.381Zm-2.965 1.422a62.923 62.923 0 0 1-2.156 3.477 57.98 57.98 0 0 1-4.114.145 62.92 62.92 0 0 1-4.068-.129A54.43 54.43 0 0 1 25 34.357a53.922 53.922 0 0 1-1.917-3.62 54.422 54.422 0 0 1 1.912-3.622 53.913 53.913 0 0 1 2.178-3.468 54.385 54.385 0 0 1 4.09-.153h.001c1.391 0 2.763.053 4.099.155a57.79 57.79 0 0 1 2.164 3.456 62.853 62.853 0 0 1 1.937 3.605 57.76 57.76 0 0 1-1.93 3.637Zm3.96-21.433c1.504.867 2.089 4.366 1.143 8.955-.06.293-.128.59-.202.893a45.97 45.97 0 0 0-6.007-.949c-1.234-1.758-2.514-3.356-3.798-4.74.345-.332.69-.649 1.034-.948 3.316-2.886 6.417-4.026 7.83-3.211Zm-10.23 13.765a4.012 4.012 0 1 1 0 8.024 4.012 4.012 0 0 1 0-8.024Z" fill="#7E7E7E"/></svg>