<svg fill="#ffffff" viewBox="0 0 50 50" xmlns="http://www.w3.org/2000/svg" xml:space="preserve" stroke="#ffffff" width="50" height="50"><g id="SVGRepo_bgCarrier" stroke-width="0"/><g id="SVGRepo_tracerCarrier" stroke-linecap="round" stroke-linejoin="round"/><g id="SVGRepo_iconCarrier"><path fill-rule="evenodd" clip-rule="evenodd" d="M25 12.575c-5.556 0 -9.027 2.76 -10.417 8.283 2.083 -2.76 4.515 -3.796 7.292 -3.106 1.585 0.394 2.719 1.538 3.971 2.802C27.89 22.615 30.254 25 35.417 25c5.556 0 9.027 -2.76 10.417 -8.283 -2.083 2.76 -4.513 3.796 -7.292 3.106 -1.585 -0.394 -2.719 -1.538 -3.973 -2.802 -2.042 -2.063 -4.404 -4.446 -9.569 -4.446zM14.583 25c-5.556 0 -9.027 2.76 -10.417 8.283 2.083 -2.763 4.515 -3.796 7.292 -3.106 1.585 0.394 2.719 1.538 3.973 2.802 2.042 2.06 4.406 4.446 9.571 4.446 5.556 0 9.027 -2.76 10.417 -8.283 -2.083 2.76 -4.515 3.796 -7.292 3.106 -1.585 -0.394 -2.719 -1.538 -3.971 -2.802C22.11 27.385 19.746 25 14.583 25z"/></g></svg>